<svg width="278" height="76" viewBox="0 0 278 76" fill="none" xmlns="http://www.w3.org/2000/svg">
<path d="M91.1109 16.171C99.0458 16.171 105.587 23.183 105.587 32.269C105.587 41.354 99.0458 48.366 91.1109 48.366C87.0526 48.366 84.0845 46.964 82.0857 44.647V59.708H73V17.025H82.0857V19.891C84.0845 17.574 87.0526 16.171 91.1109 16.171ZM89.2938 39.708C93.4732 39.708 96.5018 36.842 96.5018 32.269C96.5018 27.696 93.4732 24.83 89.2938 24.83C85.1143 24.83 82.0857 27.696 82.0857 32.269C82.0857 36.842 85.1143 39.708 89.2938 39.708ZM122.853 48.366C113.949 48.366 106.802 41.354 106.802 32.269C106.802 23.183 113.949 16.171 122.853 16.171C131.757 16.171 138.905 23.183 138.905 32.269C138.905 41.354 131.757 48.366 122.853 48.366ZM122.853 39.464C126.79 39.464 129.819 36.598 129.819 32.269C129.819 27.94 126.79 25.074 122.853 25.074C118.916 25.074 115.887 27.94 115.887 32.269C115.887 36.598 118.916 39.464 122.853 39.464ZM175.541 16.171C182.507 16.171 187.049 21.171 187.049 28.793V47.513H177.964V29.586C177.964 26.537 176.51 24.586 173.603 24.586C170.574 24.586 168.878 26.72 168.878 30.318V47.513H159.792V29.586C159.792 26.537 158.338 24.586 155.431 24.586C152.402 24.586 150.706 26.72 150.706 30.318V47.513H141.621V17.025H150.706V19.83C152.1 17.757 154.765 16.171 158.823 16.171C162.397 16.171 165.062 17.635 166.758 20.196C168.454 17.757 171.24 16.171 175.541 16.171ZM198.954 35.927C200.105 39.098 202.891 40.196 206.223 40.196C208.706 40.196 210.826 39.22 212.038 37.879L219.306 42.086C216.338 46.232 211.856 48.366 206.102 48.366C195.744 48.366 189.323 41.354 189.323 32.269C189.323 23.183 195.865 16.171 205.435 16.171C214.279 16.171 220.82 23.061 220.82 32.269C220.82 33.549 220.699 34.769 220.457 35.927H198.954ZM198.772 29.098H211.795C210.826 25.561 208.1 24.281 205.375 24.281C201.922 24.281 199.62 25.988 198.772 29.098ZM223.551 47.513V3H232.637V47.513H223.551ZM251.399 48.366C242.495 48.366 235.348 41.354 235.348 32.269C235.348 23.183 242.495 16.171 251.399 16.171C260.303 16.171 267.451 23.183 267.451 32.269C267.451 41.354 260.303 48.366 251.399 48.366ZM251.399 39.464C255.336 39.464 258.365 36.598 258.365 32.269C258.365 27.94 255.336 25.074 251.399 25.074C247.462 25.074 244.434 27.94 244.434 32.269C244.434 36.598 247.462 39.464 251.399 39.464Z" fill="black"/>
<path d="M273.126 47.5132C275.635 47.5132 277.669 45.4662 277.669 42.9402C277.669 40.4142 275.635 38.3672 273.126 38.3672C270.617 38.3672 268.583 40.4142 268.583 42.9402C268.583 45.4662 270.617 47.5132 273.126 47.5132Z" fill="#00B88F"/>
<path d="M40.4372 59.1928L15.9355 73.3778V45.0078L40.4372 59.1928Z" fill="#005C47"/>
<path d="M40.4372 30.8246L15.9355 45.0095V16.6396L40.4372 30.8246Z" fill="#00B88F"/>
<path d="M40.4375 30.8246L64.9392 16.6396V45.0095L40.4375 30.8246Z" fill="#33C6A5"/>
<path d="M15.9355 45.0082L40.4372 30.8232V59.1931L15.9355 45.0082Z" fill="#00775C"/>
<path d="M15.9355 16.6361L40.4372 2.45117V30.821L15.9355 16.6361Z" fill="#99E3D2"/>
<path d="M64.9392 16.6361L40.4375 30.821V2.45117L64.9392 16.6361Z" fill="#66D4BC"/>
<path d="M64.9392 45.0082L40.4375 59.1931V30.8232L64.9392 45.0082Z" fill="#009271"/>
</svg>
